<?xml version="1.0" encoding="UTF-8" standalone="no"?>
<!-- Created with Inkscape (http://www.inkscape.org/) -->
<svg
   xmlns:svg="http://www.w3.org/2000/svg"
   xmlns="http://www.w3.org/2000/svg"
   version="1.0"
   width="708.66144"
   height="474.32639"
   id="svg2711">
  <defs
     id="defs2713" />
  <g
     transform="translate(-172.59487,95.04978)"
     id="layer1">
    <g
       id="g3684">
      <path
         d="M 455.57466,-42.687953 L 455.57466,-42.687953 C 406.12181,-12.305257 377.03205,-1.6389253 370.2444,0.62358288 C 372.83014,2.2397525 574.35822,143.48716 574.35822,143.48716 C 574.51983,143.64878 574.68145,143.97201 574.68145,144.1335 C 574.68145,144.1335 574.68145,144.1335 574.68145,144.1335 C 574.68145,144.45673 574.51983,144.61835 574.35822,144.77997 L 565.30806,150.75953 C 564.98482,150.92115 564.66159,150.92115 564.33835,150.75953 L 489.99765,99.690773 C 438.76715,65.267782 377.67839,105.18549 369.92116,110.51859 C 371.69882,111.81153 525.22873,217.82786 526.1983,218.63594 C 529.43051,215.40373 550.43994,195.04077 597.1453,166.27412 C 646.59803,135.89142 675.68792,125.22509 682.47557,123.1242 C 679.8897,121.34654 478.36162,-19.900866 478.36162,-19.900866 C 478.03852,-20.062483 478.03852,-20.385717 478.03852,-20.547334 C 478.03852,-20.547334 478.03852,-20.547334 478.03852,-20.547334 C 478.03852,-20.870568 478.2,-21.032185 478.36162,-21.193802 L 487.41191,-27.173371 C 487.73502,-27.334988 488.05825,-27.334988 488.21987,-27.173371 L 562.72231,23.89552 C 613.95269,58.480128 675.04145,18.400673 682.7988,13.067572 C 681.02102,11.774636 527.49124,-94.241695 526.35992,-95.04978 C 523.28933,-91.81757 502.28003,-71.454608 455.57466,-42.687953"
         id="path400"
         style="font-size:38px;letter-spacing:0;word-spacing:0;fill:#ff0000;fill-opacity:1;fill-rule:nonzero;stroke:none;font-family:fnt0" />
      <path
         d="M 442.48421,272.93704 C 442.48421,274.39147 442.48421,296.6937 442.48421,298.14826 C 444.10025,298.14826 499.8559,298.14826 499.8559,298.14826 C 500.01752,298.14826 500.34062,298.30987 500.50224,298.63298 C 500.50224,298.63298 500.50224,298.7946 500.50224,298.7946 C 500.50224,299.11783 500.50224,299.27945 500.34062,299.44106 C 500.34062,299.44106 441.02965,354.87348 440.5448,355.3582 C 440.5448,356.00467 440.5448,375.0747 440.5448,376.52925 C 441.99936,376.52925 559.32849,376.52925 560.94453,376.52925 C 560.94453,375.0747 560.94453,352.77246 560.94453,351.31804 C 559.32849,351.31804 500.98709,351.31804 500.98709,351.31804 C 500.66386,351.31804 500.34062,350.99481 500.17901,350.83319 C 500.17901,350.67157 500.17901,350.67157 500.17901,350.50995 C 500.17901,350.34834 500.34062,350.0251 500.50224,349.86349 C 500.50224,349.86349 560.62129,294.75443 561.10614,294.26958 C 561.10614,293.62311 561.10614,274.39147 561.10614,272.93704 C 559.65172,272.93704 444.10025,272.93704 442.48421,272.93704"
         id="path402"
         style="font-size:38px;letter-spacing:0;word-spacing:0;fill:#0033cc;fill-opacity:1;fill-rule:nonzero;stroke:none;font-family:fnt0" />
      <path
         d="M 394.00106,272.93704 C 394.00106,274.39147 394.00106,336.61141 394.00106,336.61141 C 394.00106,347.60098 384.9509,354.71187 371.05235,354.71187 C 356.83071,354.71187 347.94216,347.60098 347.94216,336.4498 C 347.94216,336.4498 347.94216,274.39147 347.94216,272.93704 C 346.48761,272.93704 312.8727,272.93704 311.41815,272.93704 C 311.41815,274.39147 311.41815,340.65171 311.41815,340.65171 C 311.41815,365.7013 320.95316,379.27661 371.05235,379.27661 C 421.15167,379.27661 430.52507,365.7013 430.52507,340.65171 C 430.52507,340.65171 430.52507,274.39147 430.52507,272.93704 C 429.07052,272.93704 395.61723,272.93704 394.00106,272.93704"
         id="path404"
         style="font-size:38px;letter-spacing:0;word-spacing:0;fill:#0033cc;fill-opacity:1;fill-rule:nonzero;stroke:none;font-family:fnt0" />
      <path
         d="M 654.67849,272.93704 C 654.67849,274.39147 654.67849,336.61141 654.67849,336.61141 C 654.67849,347.60098 645.62832,354.71187 631.56829,354.71187 C 617.34652,354.71187 608.61959,347.60098 608.61959,336.4498 C 608.61959,336.4498 608.61959,274.39147 608.61959,272.93704 C 607.16517,272.93704 573.55013,272.93704 572.09571,272.93704 C 572.09571,274.39147 572.09571,340.65171 572.09571,340.65171 C 572.09571,365.7013 581.46911,379.27661 631.56829,379.27661 C 681.66748,379.27661 691.2025,365.7013 691.2025,340.65171 C 691.2025,340.65171 691.2025,274.39147 691.2025,272.93704 C 689.74794,272.93704 656.13304,272.93704 654.67849,272.93704"
         id="path406"
         style="font-size:38px;letter-spacing:0;word-spacing:0;fill:#0033cc;fill-opacity:1;fill-rule:nonzero;stroke:none;font-family:fnt0" />
      <path
         d="M 843.11624,272.93704 C 843.11624,274.39147 843.11624,375.0747 843.11624,376.52925 C 844.57066,376.52925 879.80173,376.52925 881.25629,376.52925 C 881.25629,375.0747 881.25629,274.39147 881.25629,272.93704 C 879.80173,272.93704 844.57066,272.93704 843.11624,272.93704"
         id="path408"
         style="font-size:38px;letter-spacing:0;word-spacing:0;fill:#0033cc;fill-opacity:1;fill-rule:nonzero;stroke:none;font-family:fnt0" />
      <path
         d="M 784.28999,272.93704 C 783.80514,273.26015 742.27139,308.97608 742.27139,308.97608 C 742.10977,309.13769 741.78654,309.29931 741.4633,309.13769 C 741.14007,308.97608 740.97845,308.81446 740.97845,308.49123 C 740.97845,308.49123 740.97845,274.39147 740.97845,272.93704 C 739.52403,272.93704 704.29295,272.93704 702.8384,272.93704 C 702.8384,274.39147 702.8384,375.0747 702.8384,376.52925 C 704.29295,376.52925 739.52403,376.52925 740.97845,376.52925 C 740.97845,375.0747 740.97845,340.00524 740.97845,340.00524 C 740.97845,339.68201 741.14007,339.52039 741.4633,339.3589 C 741.78654,339.19728 742.10977,339.19728 742.27139,339.52039 C 742.27139,339.52039 780.89616,376.20602 781.38101,376.52925 C 781.86586,376.52925 828.73284,376.52925 832.28829,376.52925 C 829.54093,373.94351 775.72468,323.84419 775.72468,323.84419 C 775.56306,323.84419 775.56306,323.52109 775.56306,323.35947 C 775.56306,323.35947 775.56306,323.35947 775.56306,323.35947 C 775.56306,323.19785 775.56306,322.87462 775.72468,322.713 C 775.72468,322.713 831.15697,275.52279 834.22756,272.93704 C 830.34901,272.93704 784.77484,272.93704 784.28999,272.93704"
         id="path410"
         style="font-size:38px;letter-spacing:0;word-spacing:0;fill:#0033cc;fill-opacity:1;fill-rule:nonzero;stroke:none;font-family:fnt0" />
      <path
         d="M 174.85751,303.96621 C 174.85751,327.39963 193.92753,333.70244 231.74435,337.74273 C 231.90597,337.74273 234.00686,337.90435 234.00686,337.90435 C 240.79451,338.06597 256.47071,338.55082 256.47071,347.7626 C 256.47071,353.41893 250.49114,356.48952 239.82481,356.48952 C 234.65333,356.48952 227.05759,355.0351 220.75479,344.04553 C 219.9467,344.04553 174.21104,344.04553 172.59487,344.04553 C 172.75649,355.84306 177.12002,363.92365 186.49341,369.57998 C 197.15974,375.88278 214.6136,378.95338 239.82481,378.95338 C 295.74195,378.95338 300.10548,352.93408 300.10548,345.01524 C 300.10548,326.59168 283.6212,315.60211 249.68306,311.23858 L 242.73379,310.26901 C 227.86567,308.49123 216.06815,307.0368 216.06815,301.21885 C 216.06815,297.01694 218.97713,292.00707 233.03716,292.00707 C 235.94613,292.00707 245.966,292.97664 252.91527,303.96621 C 253.72335,303.96621 294.934,303.96621 296.55004,303.96621 C 296.06519,282.31044 272.955,269.86645 233.19877,269.86645 C 180.51384,269.86645 174.85751,293.78473 174.85751,303.96621"
         id="path412"
         style="font-size:38px;letter-spacing:0;word-spacing:0;fill:#0033cc;fill-opacity:1;fill-rule:nonzero;stroke:none;font-family:fnt0" />
    </g>
  </g>
</svg>
